<?xml version="1.0" encoding="utf-8"?>
<!-- Generator: Adobe Illustrator 16.0.0, SVG Export Plug-In . SVG Version: 6.00 Build 0)  -->
<!DOCTYPE svg PUBLIC "-//W3C//DTD SVG 1.1//EN" "http://www.w3.org/Graphics/SVG/1.1/DTD/svg11.dtd">
<svg version="1.1" id="Capa_1" xmlns="http://www.w3.org/2000/svg" xmlns:xlink="http://www.w3.org/1999/xlink" x="0px" y="0px"
	 width="199.73px" height="46.107px" viewBox="0 0 199.73 46.107" enable-background="new 0 0 199.73 46.107" xml:space="preserve">
<g>
	<g>
		<path fill="#3D5D3C" d="M61.715,37.104c-1.3,1.147-3.11,1.831-5.096,1.831c-5.989,0-11.24-5.062-11.486-12.479h16.612
			c0.531,0,0.848-0.209,0.849-0.791c-0.326-7.689-5.425-12.429-12.891-12.429c-4.57,0-9.33,2.412-11.86,5.873
			c-2.409,3.212-3.524,6.731-3.524,10.748c0,3.951,1.177,7.412,3.584,10.25c2.903,3.46,7.043,5.377,11.614,5.377
			c4.826,0,9.185-2.011,12.593-5.863c0.25-0.278,0.799-1.009,1.061-1.889C63.411,36.936,62.833,36.12,61.715,37.104 M49.948,15.528
			c2.595,0,3.891,1.789,3.891,5.371c0,3.337-1.668,3.396-5.987,3.396h-2.78C45.071,18.37,46.49,15.528,49.948,15.528"/>
		<path fill="#3D5D3C" d="M181.032,41.44c0.254-0.535-0.175-1.426-0.674-1.194c-0.337,0.152-0.56,0.235-0.754,0.235
			c-1.788,0-2.344-2.158-2.344-6.607v-8.588c0-3.707-0.253-6.364-2.66-8.648c-2.283-2.103-6.053-3.4-10.808-3.4
			c-8.59,0-13.901,4.326-13.901,9.515c0,2.534,1.607,4.201,4.08,4.201c2.594,0,4.445-1.854,4.445-4.878
			c0-0.682-0.123-1.732-0.123-3.029c0-1.851,1.546-3.336,3.707-3.336c2.717,0,3.705,1.978,3.705,6.302v2.163
			c-12.044,4.632-17.915,7.723-17.915,13.833c0,4.328,3.339,7.479,8.34,7.479c3.769,0,7.104-1.729,10.133-5.191
			c1.109,3.212,3.521,4.88,7.104,4.88c2.876,0,5.381-1.018,7.009-2.809C180.57,42.142,180.801,41.924,181.032,41.44 M165.706,32.141
			c0,5.129-0.063,7.6-2.778,7.6c-1.609,0-2.78-1.547-2.78-4.204c0-4.57,1.975-7.718,5.559-9.139V32.141z"/>
		<path fill="#3D5D3C" d="M85.519,13.237c-2.719,0-5.067,1.733-7.044,5.066v-3.56c0-1.063-0.426-1.528-1.228-1.109
			c-4.776,2.477-8.931,4.494-12.537,5.938c-1.271,0.528-1.399,1.764,0,2.751l1.225,0.863c1.546,1.05,1.729,1.852,1.729,3.521v11.367
			c0,3.089-0.987,4.384-3.707,4.384h-0.182c-0.091,0-0.158,0.071-0.158,0.159v1.411c0,0.089,0.067,0.16,0.158,0.16l0,0h19.766l0,0
			c0.089,0,0.158-0.071,0.158-0.16v-1.411c0-0.087-0.069-0.159-0.158-0.159h-0.188c-2.961,0-4.074-1.295-4.074-4.384V25.594
			c0-4.078,0.369-6.054,1.852-6.054c1.236,0,2.289,2.72,5.188,2.72c2.536,0,4.14-1.672,4.14-4.2
			C90.457,15.155,88.48,13.237,85.519,13.237"/>
		<path fill="#3D5D3C" d="M147.683,42.458L147.683,42.458h-0.188c-2.719,0-3.703-1.295-3.703-4.384V23.494
			c0-6.856-3.216-10.19-9.824-10.19c-4.017,0-7.289,1.602-9.511,4.751c-1.422-3.084-4.45-4.751-8.647-4.751
			c-4.326,0-7.476,1.48-9.948,4.818v-3.376c0-1.064-0.423-1.482-1.226-1.064l0,0c-4.216,2.334-8.299,4.306-12.291,5.889
			c-0.001,0.001-0.001,0.001-0.001,0.001c-1.271,0.528-1.398,1.764,0,2.751l1.227,0.863c1.542,1.05,1.729,1.852,1.729,3.521v11.367
			c0,3.089-0.988,4.384-3.702,4.384h-0.189c-0.089,0-0.158,0.071-0.158,0.159v1.411c0,0.089,0.069,0.16,0.158,0.16l0,0h15.508
			V23.803c0-3.895,0.738-5.808,3.271-5.808c2.782,0,3.52,1.853,3.52,5.808v14.27c0,3.089-0.985,4.384-3.704,4.384h-0.185
			c-0.086,0-0.153,0.071-0.153,0.159v1.411c0,0.089,0.067,0.16,0.153,0.16l0,0h19.395l0,0c0.087,0,0.159-0.071,0.159-0.16v-1.411
			c0-0.087-0.072-0.159-0.159-0.159h-0.185c-2.719,0-3.705-1.295-3.705-4.384v-14.27c0-3.895,0.803-5.808,3.334-5.808
			c2.779,0,3.521,1.853,3.521,5.808v20.384h15.508l0,0c0.085,0,0.157-0.071,0.157-0.16v-1.411
			C147.84,42.529,147.768,42.458,147.683,42.458"/>
		<path fill="#3D5D3C" d="M37.273,12.824L34.97,0.767c-0.042-0.225-0.172-0.236-0.327-0.149l0,0c-1.134,0.63-2.887,0.946-5.17,0.946
			H8.658c-2.281,0-4.034-0.315-5.167-0.946l0,0C3.334,0.531,3.206,0.542,3.162,0.767L0.855,12.824
			c-0.024,0.138,0.022,0.254,0.15,0.3l0.943,0.341c0.123,0.044,0.246,0.024,0.3-0.104l0,0c2.221-5.315,5.478-8.22,10.054-9.016
			v4.967v27.832c0,3.833-0.986,5.068-4.881,5.313c-0.086,0-0.156,0.071-0.156,0.159v1.411c0,0.089,0.07,0.16,0.156,0.16h23.228
			c0.087,0,0.157-0.071,0.157-0.16v-1.411c0-0.087-0.07-0.159-0.157-0.159c-3.894-0.245-4.82-1.479-4.82-5.313V8.239V4.346
			c4.58,0.795,7.832,3.7,10.053,9.016l0,0c0.057,0.128,0.18,0.147,0.303,0.104l0.941-0.341
			C37.254,13.078,37.303,12.962,37.273,12.824"/>
		<path fill="#8EBB37" d="M194.604,20.61c-1.881,1.771-7.692,1.532-11.38,4.732c-3.131,2.72-4.151,6.493-2.981,10.253
			c0.235,0.766,0.574,1.457,0.986,2.079c0.355,0.538,1.004,0.925,1.729,0.925c2.901-0.015,8.529-3.077,9.539-9.624
			c0.126-0.808,0.637-0.717,0.625,0.078c-0.084,5.727-5.019,10.601-8.752,10.929c-0.29,0.024-0.377,0.331-0.118,0.441
			c8.864,3.737,19.518-5.183,10.925-19.782C195.033,20.399,194.798,20.427,194.604,20.61"/>
		<path fill="#3D5D3C" d="M184.105,43.988c0-0.06-0.007-0.113-0.022-0.154c-0.015-0.039-0.036-0.071-0.056-0.099
			c-0.025-0.024-0.048-0.04-0.075-0.055c-0.026-0.008-0.054-0.018-0.073-0.018v-0.006c0.011-0.005,0.032-0.013,0.057-0.027
			c0.027-0.01,0.063-0.034,0.087-0.063c0.029-0.027,0.054-0.066,0.076-0.118c0.02-0.049,0.031-0.107,0.031-0.18
			c0-0.13-0.041-0.233-0.128-0.307c-0.083-0.074-0.209-0.11-0.378-0.11h-0.74v1.542h0.272v-0.635h0.398
			c0.062,0,0.11,0.008,0.149,0.024c0.04,0.013,0.072,0.039,0.095,0.075c0.024,0.03,0.041,0.077,0.047,0.126
			c0.01,0.05,0.015,0.112,0.015,0.185c0,0.033,0.002,0.071,0.005,0.117c0.002,0.037,0.015,0.073,0.033,0.109h0.291
			c-0.028-0.033-0.05-0.084-0.063-0.157C184.112,44.162,184.105,44.076,184.105,43.988 M183.793,43.491
			c-0.042,0.039-0.107,0.063-0.193,0.063h-0.443v-0.481h0.438c0.035,0,0.066,0,0.099,0.006c0.034,0.006,0.064,0.018,0.088,0.034
			c0.023,0.02,0.047,0.044,0.06,0.076c0.015,0.029,0.022,0.07,0.022,0.115C183.862,43.391,183.84,43.447,183.793,43.491"/>
		<path fill="#3D5D3C" d="M183.498,42.14c-0.833,0-1.51,0.674-1.51,1.51c0,0.833,0.677,1.512,1.51,1.512
			c0.836,0,1.512-0.679,1.512-1.512C185.01,42.814,184.334,42.14,183.498,42.14 M183.498,44.852c-0.664,0-1.204-0.543-1.204-1.202
			c0-0.665,0.54-1.204,1.204-1.204c0.666,0,1.204,0.54,1.204,1.204C184.702,44.309,184.164,44.852,183.498,44.852"/>
	</g>
</g>
</svg>
